<svg viewBox="0 0 153.2 23.7" xmlns="http://www.w3.org/2000/svg"><g fill="#222"><path d="M19.1 22.4L17.9 19h-7.4l-1.2 3.4H3.9l7.5-20.9h5.3l7.5 20.9zm-2.8-8.1l-2.1-5.9-2.1 5.9zM42.1 22.8c-2.5 0-4.7-.8-6.4-2.3-1.7-1.6-2.6-3.8-2.6-6.8V1.4h5.1v12.3c0 1.3.3 2.4 1 3.1.6.7 1.6 1.1 2.9 1.1s2.3-.4 2.9-1.1 1-1.8 1-3.1V1.4h5.1v12.2c0 2.9-.9 5.2-2.6 6.8-1.8 1.6-3.9 2.4-6.4 2.4zM67.8 6.3h-5.2V1.4h9.5c2.2 0 4 .6 5.3 1.9 1.3 1.2 1.9 2.9 1.9 4.9 0 1.4-.3 2.7-1 3.8-.6.9-1.4 1.6-2.3 2.2l4.5 8.2h-6v-.1l-3.7-7.5h-3.1v7.5h-5.1V12m5.2-2h4.3c.7 0 1.2-.2 1.6-.5.3-.3.5-.8.5-1.4s-.1-1.1-.4-1.3c-.3-.4-.8-.5-1.5-.5h-4.4M99.8 22.8c-3.1 0-5.7-1-7.8-3.1-2-2-3.1-4.7-3.1-7.8s1-5.7 3.1-7.8c2-2 4.6-3.1 7.8-3.1s5.7 1 7.8 3.1c2 2 3.1 4.7 3.1 7.8s-1 5.7-3.1 7.8-4.7 3.1-7.8 3.1zm0-16.9c-1.6 0-2.9.5-4 1.6-1 1.1-1.5 2.5-1.5 4.3s.5 3.3 1.5 4.3c1 1.1 2.3 1.6 4 1.6 1.6 0 2.9-.5 4-1.6 1-1.1 1.5-2.5 1.5-4.3s-.5-3.3-1.5-4.3c-1-1.1-2.4-1.6-4-1.6zM128.4 22.8c-1.4 0-2.6-.2-3.7-.6s-1.9-1-2.6-1.7c-.6-.7-1.1-1.5-1.4-2.3s-.5-1.7-.5-2.6V15h5v.5c0 .7.3 1.3.9 1.8s1.4.7 2.5.7c1 0 1.8-.2 2.3-.5s.7-.7.7-1.3c0-.4-.1-.7-.4-.9-.3-.3-.8-.5-1.3-.7l-4.3-1.2c-.8-.2-1.6-.6-2.2-1-.7-.4-1.3-1.1-1.7-1.9s-.6-1.8-.6-2.9c0-1.9.7-3.5 2.1-4.7 1.4-1.3 3.3-1.9 5.6-1.9 2.4 0 4.3.7 5.7 2 1.4 1.4 2.2 3.1 2.2 5.1v.5h-5v-.5c0-.8-.3-1.4-.8-1.8-.5-.5-1.2-.7-2.1-.7-.8 0-1.5.2-2 .5-.4.3-.7.7-.7 1.2 0 .4.1.7.4.9.3.3.8.5 1.4.7l4.4 1.2c.8.2 1.6.6 2.2 1 .7.5 1.3 1.1 1.7 2 .4.8.6 1.9.6 3 0 1.9-.8 3.6-2.4 4.8s-3.6 1.9-6 1.9z"/></g><path d="M143.6 16.5h5.7v5.7h-5.7z" fill="#f47722"/></svg>